<?xml version="1.0" encoding="iso-8859-1"?>
<!-- Generator: Adobe Illustrator 19.0.0, SVG Export Plug-In . SVG Version: 6.00 Build 0)  -->
<svg version="1.1" id="Layer_1" xmlns="http://www.w3.org/2000/svg" xmlns:xlink="http://www.w3.org/1999/xlink" x="0px" y="0px"
	 viewBox="0 0 512 512" style="enable-background:new 0 0 512 512;" xml:space="preserve">
<path style="fill:#DFDFE2;" d="M481.509,329.214C499.844,317.422,512,296.854,512,273.434c0-31.018-21.305-57.052-50.08-64.287
	c8.399-11.834,13.347-26.291,13.327-41.912c-0.047-38.731-31.043-70.861-69.75-72.228c-13.69-0.484-26.558,2.85-37.65,9
	c-2.22-39.837-35.218-71.459-75.61-71.459c-21.327,0-40.582,8.828-54.347,23.013c-13.3-21.79-44.832-42.19-81.764-36.338
	c-62.185,9.853-66.78,64.204-71.351,64.327C37.851,84.817,0.051,123.659,0,170.601c-0.035,31.711,16.862,59.477,42.15,74.761
	c-12.787,13.671-20.578,32.072-20.423,52.304c0.31,40.478,32.9,73.864,73.359,75.109c14.439,0.444,27.992-3.176,39.637-9.771
	c1.408,37.297,32.071,67.106,69.712,67.106c25.941,0,48.559-14.166,60.585-35.174c13.037,18.156,34.316,29.995,58.373,29.995
	c8.926,0,17.465-1.64,25.35-4.616c7.593,10.052,19.106,16.969,32.267,18.493c-1.441,5.179-1.969,10.739-1.323,16.512
	c2.329,20.81,19.554,37.171,40.459,38.396c25.119,1.472,45.95-18.464,45.95-43.264c0-8.324-2.352-16.097-6.419-22.699
	c25.581-4.591,44.998-26.943,44.998-53.844C504.675,355.441,495.519,339.124,481.509,329.214z"/>
<g>
	<circle style="opacity:0.23;fill:#3E3B43;enable-background:new    ;" cx="156.713" cy="179.864" r="51.83"/>
	<circle style="opacity:0.23;fill:#3E3B43;enable-background:new    ;" cx="345.297" cy="297.464" r="51.83"/>
</g>
<rect x="157.101" y="149.47" style="fill:#FFF5CC;" width="103.649" height="158.44"/>
<rect x="260.749" y="149.47" style="fill:#FFE477;" width="103.649" height="158.44"/>
<g>
	<polygon style="fill:#DDB200;" points="331.755,224.512 312.698,213.549 293.475,224.219 294.048,149.406 332.328,149.699 	"/>
	<rect x="157.101" y="307.91" style="fill:#DDB200;" width="207.297" height="15.627"/>
	<path style="fill:#DDB200;" d="M232.163,188.109H184.01c-4.335,0-7.85-3.514-7.85-7.85s3.515-7.85,7.85-7.85h48.154
		c4.335,0,7.846,3.514,7.846,7.85S236.499,188.109,232.163,188.109z"/>
	<path style="fill:#DDB200;" d="M232.163,215.125H184.01c-4.335,0-7.85-3.514-7.85-7.85s3.515-7.85,7.85-7.85h48.154
		c4.335,0,7.846,3.514,7.846,7.85S236.499,215.125,232.163,215.125z"/>
	<path style="fill:#DDB200;" d="M208.936,242.607h-24.463c-4.335,0-7.85-3.514-7.85-7.85s3.515-7.85,7.85-7.85h24.463
		c4.335,0,7.848,3.514,7.848,7.85S213.272,242.607,208.936,242.607z"/>
</g>
<g>
</g>
<g>
</g>
<g>
</g>
<g>
</g>
<g>
</g>
<g>
</g>
<g>
</g>
<g>
</g>
<g>
</g>
<g>
</g>
<g>
</g>
<g>
</g>
<g>
</g>
<g>
</g>
<g>
</g>
</svg>
